<?xml version="1.0" encoding="utf-8"?>
<!-- Generator: Adobe Illustrator 16.0.0, SVG Export Plug-In . SVG Version: 6.00 Build 0)  -->
<!DOCTYPE svg PUBLIC "-//W3C//DTD SVG 1.1//EN" "http://www.w3.org/Graphics/SVG/1.1/DTD/svg11.dtd">
<svg version="1.1" id="Layer_1" xmlns="http://www.w3.org/2000/svg" xmlns:xlink="http://www.w3.org/1999/xlink" x="0px" y="0px"
	 width="928.571px" height="1000px" viewBox="0 0 928.571 1000" enable-background="new 0 0 928.571 1000" xml:space="preserve">
<path fill="#FFFFFF" d="M119.17,874.22h141.184V733.036H119.17V874.22L119.17,874.22z M291.728,874.22h156.871V733.036H291.728
	V874.22z M119.17,701.662h141.184V544.791H119.17V701.662z M291.728,701.662h156.871V544.791H291.728V701.662z M119.17,513.417
	h141.184V372.234H119.17V513.417z M479.972,874.22h156.871V733.036H479.972V874.22z M291.728,513.417h156.871V372.234H291.728
	V513.417z M668.216,874.22h141.185V733.036H668.216V874.22z M479.972,701.662h156.871V544.791H479.972V701.662L479.972,701.662z
	 M307.416,278.112V136.928c0-4.249-1.553-7.925-4.658-11.03c-3.104-3.105-6.781-4.657-11.03-4.657h-31.374
	c-4.249,0-7.925,1.552-11.03,4.657c-3.105,3.104-4.657,6.781-4.657,11.03v141.184c0,4.249,1.552,7.925,4.657,11.03
	c3.104,3.104,6.781,4.657,11.03,4.657h31.374c4.249,0,7.925-1.553,11.03-4.657C305.863,286.037,307.416,282.36,307.416,278.112z
	 M668.216,701.662h141.185V544.791H668.216V701.662z M479.972,513.417h156.871V372.234H479.972V513.417L479.972,513.417z
	 M668.216,513.417h141.185V372.234H668.216V513.417z M683.905,278.112V136.928c0-4.249-1.553-7.925-4.657-11.03
	c-3.105-3.105-6.782-4.657-11.031-4.657h-31.373c-4.248,0-7.926,1.552-11.029,4.657c-3.106,3.104-4.657,6.781-4.657,11.03v141.184
	c0,4.249,1.551,7.925,4.657,11.03c3.104,3.104,6.781,4.657,11.029,4.657h31.373c4.249,0,7.926-1.553,11.031-4.657
	C682.352,286.037,683.905,282.36,683.905,278.112z M872.149,246.738V874.22c0,16.994-6.21,31.701-18.628,44.119
	c-12.419,12.419-27.126,18.629-44.12,18.629h-690.23c-16.995,0-31.701-6.21-44.12-18.629
	c-12.418-12.418-18.628-27.125-18.628-44.119V246.738c0-16.994,6.21-31.701,18.628-44.12c12.419-12.418,27.125-18.628,44.12-18.628
	h62.748v-47.062c0-21.569,7.68-40.035,23.041-55.395c15.36-15.361,33.825-23.041,55.395-23.041h31.375
	c21.569,0,40.034,7.68,55.395,23.041c15.36,15.36,23.041,33.825,23.041,55.395v47.062h188.245v-47.062
	c0-21.569,7.679-40.035,23.039-55.395c15.36-15.361,33.825-23.041,55.396-23.041h31.373c21.57,0,40.035,7.68,55.396,23.041
	c15.36,15.36,23.041,33.825,23.041,55.395v47.062h62.748c16.994,0,31.701,6.209,44.12,18.628
	C865.939,215.037,872.149,229.744,872.149,246.738L872.149,246.738z"/>
</svg>
