<?xml version="1.0" encoding="utf-8"?>
<!-- Generator: Adobe Illustrator 16.0.0, SVG Export Plug-In . SVG Version: 6.00 Build 0)  -->
<!DOCTYPE svg PUBLIC "-//W3C//DTD SVG 1.1//EN" "http://www.w3.org/Graphics/SVG/1.1/DTD/svg11.dtd">
<svg version="1.1" id="Layer_1" xmlns="http://www.w3.org/2000/svg" xmlns:xlink="http://www.w3.org/1999/xlink" x="0px" y="0px"
	 width="928.571px" height="1000px" viewBox="0 0 928.571 1000" enable-background="new 0 0 928.571 1000" xml:space="preserve">
<g>
	<rect x="331.956" y="388.727" fill="#FFFFFF" width="128.114" height="115.302"/>
	<rect x="485.692" y="683.389" fill="#FFFFFF" width="128.115" height="115.303"/>
	<path fill="#FFFFFF" d="M340.964,320.867c2.536-2.536,3.803-5.539,3.803-9.008V196.557c0-3.47-1.268-6.472-3.803-9.008
		s-5.538-3.804-9.008-3.804h-25.623c-3.47,0-6.473,1.268-9.008,3.804c-2.536,2.536-3.804,5.538-3.804,9.008v115.302
		c0,3.47,1.268,6.473,3.804,9.008c2.535,2.535,5.538,3.803,9.008,3.803h25.623C335.426,324.67,338.429,323.402,340.964,320.867z"/>
	<rect x="331.956" y="683.389" fill="#FFFFFF" width="128.114" height="115.303"/>
	<rect x="191.031" y="683.389" fill="#FFFFFF" width="115.302" height="115.303"/>
	<rect x="191.031" y="388.727" fill="#FFFFFF" width="115.302" height="115.302"/>
	<rect x="191.031" y="529.652" fill="#FFFFFF" width="115.302" height="128.113"/>
	<rect x="331.956" y="529.652" fill="#FFFFFF" width="128.114" height="128.113"/>
	<rect x="639.428" y="388.727" fill="#FFFFFF" width="115.303" height="115.302"/>
	<rect x="485.692" y="529.652" fill="#FFFFFF" width="128.115" height="128.113"/>
	<rect x="639.428" y="529.652" fill="#FFFFFF" width="115.303" height="128.113"/>
	<path fill="#FFFFFF" d="M0,0v1000h928.571V0H0z M805.977,798.691c0,13.879-5.072,25.889-15.213,36.031
		c-10.143,10.143-22.154,15.213-36.033,15.213h-563.7c-13.879,0-25.889-5.07-36.032-15.213
		c-10.142-10.143-15.214-22.152-15.214-36.031V286.236c0-13.879,5.072-25.89,15.214-36.032
		c10.143-10.142,22.153-15.213,36.032-15.213h51.246v-38.434c0-17.615,6.272-32.695,18.817-45.24
		c12.544-12.544,27.624-18.817,45.24-18.817h25.623c17.616,0,32.696,6.272,45.24,18.817s18.816,27.625,18.816,45.24v38.434H549.75
		v-38.434c0-17.615,6.271-32.695,18.814-45.24c12.545-12.544,27.625-18.817,45.242-18.817h25.621
		c17.615,0,32.695,6.272,45.24,18.817s18.818,27.625,18.818,45.24v38.434h51.244c13.879,0,25.891,5.071,36.033,15.213
		c10.141,10.143,15.213,22.153,15.213,36.032V798.691z"/>
	<rect x="485.692" y="388.727" fill="#FFFFFF" width="128.115" height="115.302"/>
	<rect x="639.428" y="683.389" fill="#FFFFFF" width="115.303" height="115.303"/>
	<path fill="#FFFFFF" d="M648.438,320.867c2.535-2.536,3.803-5.539,3.803-9.008V196.557c0-3.47-1.268-6.472-3.803-9.008
		c-2.537-2.536-5.539-3.804-9.01-3.804h-25.621c-3.471,0-6.473,1.268-9.008,3.804c-2.537,2.536-3.805,5.538-3.805,9.008v115.302
		c0,3.47,1.268,6.473,3.805,9.008c2.535,2.535,5.537,3.803,9.008,3.803h25.621C642.899,324.67,645.901,323.402,648.438,320.867z"/>
</g>
</svg>
