<?xml version="1.0" encoding="utf-8"?>
<!-- Generator: Adobe Illustrator 16.0.0, SVG Export Plug-In . SVG Version: 6.00 Build 0)  -->
<!DOCTYPE svg PUBLIC "-//W3C//DTD SVG 1.1//EN" "http://www.w3.org/Graphics/SVG/1.1/DTD/svg11.dtd">
<svg version="1.1" id="Layer_1" xmlns="http://www.w3.org/2000/svg" xmlns:xlink="http://www.w3.org/1999/xlink" x="0px" y="0px"
	 width="928.571px" height="1000px" viewBox="0 0 928.571 1000" enable-background="new 0 0 928.571 1000" xml:space="preserve">
<path fill="#FCFCFC" d="M789.037,297.572c-1.601-6.639-4.579-11.446-8.013-15.566L589.421,72.087
	c-4.35-4.808-9.385-7.096-15.108-10.072c-6.639-3.434-13.962-3.663-21.519-3.663h-366.04c-28.387,0-54.254,21.977-54.254,52.422
	v767.335c0,30.676,25.868,59.291,54.254,59.291h556.498c28.387,0,48.534-28.615,48.534-59.291v-558.79
	C791.787,311.078,790.87,305.127,789.037,297.572z M574.313,165.028l132.773,145.364H574.313V165.028z M205.754,864.374V131.835
	H501.06v187.027c0,33.879,30.676,64.783,64.325,64.783h153.146v480.729H205.754z"/>
</svg>
