<?xml version="1.0" encoding="utf-8"?>
<!-- Generator: Adobe Illustrator 16.0.0, SVG Export Plug-In . SVG Version: 6.00 Build 0)  -->
<!DOCTYPE svg PUBLIC "-//W3C//DTD SVG 1.1//EN" "http://www.w3.org/Graphics/SVG/1.1/DTD/svg11.dtd">
<svg version="1.1" id="Layer_1" xmlns="http://www.w3.org/2000/svg" xmlns:xlink="http://www.w3.org/1999/xlink" x="0px" y="0px"
	 width="928.571px" height="1000px" viewBox="0 0 928.571 1000" enable-background="new 0 0 928.571 1000" xml:space="preserve">
<g>
	<polygon fill="#FFFFFF" points="572.364,193.341 572.364,325.302 692.895,325.302 	"/>
	<path fill="#FFFFFF" d="M505.864,332.991V163.208H237.785v665h465.501V391.802H564.258
		C533.711,391.802,505.864,363.747,505.864,332.991z"/>
	<path fill="#FFFFFF" d="M0,0v1000h928.571V0H0z M769.786,840.677c0,27.848-18.289,53.824-44.059,53.824h-505.19
		c-25.77,0-49.252-25.977-49.252-53.824V144.089c0-27.639,23.482-47.589,49.252-47.589h332.292c6.859,0,13.508,0.208,19.535,3.325
		c5.195,2.701,9.766,4.779,13.715,9.144l173.938,190.564c3.117,3.74,5.82,8.104,7.273,14.131c1.664,6.858,2.496,12.261,2.496,19.742
		V840.677z"/>
</g>
</svg>
