<?xml version="1.0" encoding="utf-8"?>
<!-- Generator: Adobe Illustrator 16.0.0, SVG Export Plug-In . SVG Version: 6.00 Build 0)  -->
<!DOCTYPE svg PUBLIC "-//W3C//DTD SVG 1.1//EN" "http://www.w3.org/Graphics/SVG/1.1/DTD/svg11.dtd">
<svg version="1.1" id="Layer_1" xmlns="http://www.w3.org/2000/svg" xmlns:xlink="http://www.w3.org/1999/xlink" x="0px" y="0px"
	 width="928.571px" height="1000px" viewBox="0 0 928.571 1000" enable-background="new 0 0 928.571 1000" xml:space="preserve">
<g>
	<path fill="#FCFCFC" d="M878.29,552.172L465,138.882L51.71,552.172c-20.947,20.947-20.947,54.882,0,75.829s54.882,20.947,75.829,0
		l15.71-15.71v192.296v54.321h53.625h536.25h53.625v-54.321V612.291l15.711,15.71c10.473,10.474,24.194,15.711,37.914,15.711
		c13.721,0,27.441-5.237,37.914-15.711C899.237,607.054,899.237,573.119,878.29,552.172z M733.125,805.283H411.375v-214.5h-107.25
		v214.5h-107.25V558.666L465,290.541l268.125,268.125V805.283z"/>
	<rect x="518.625" y="590.783" fill="#FCFCFC" width="107.25" height="107.25"/>
</g>
<rect x="518.625" y="590.783" fill="#FCFCFC" width="107.25" height="107.25"/>
<polygon fill="#FCFCFC" points="304.125,223.928 304.125,161.784 196.875,161.784 196.875,331.178 "/>
</svg>
