<?xml version="1.0" encoding="utf-8"?>
<!-- Generator: Adobe Illustrator 16.0.0, SVG Export Plug-In . SVG Version: 6.00 Build 0)  -->
<!DOCTYPE svg PUBLIC "-//W3C//DTD SVG 1.1//EN" "http://www.w3.org/Graphics/SVG/1.1/DTD/svg11.dtd">
<svg version="1.1" id="Layer_1" xmlns="http://www.w3.org/2000/svg" xmlns:xlink="http://www.w3.org/1999/xlink" x="0px" y="0px"
	 width="928.571px" height="1000px" viewBox="0 0 928.571 1000" enable-background="new 0 0 928.571 1000" xml:space="preserve">
<g>
	<path fill="#FFFFFF" d="M467.368,409.23c-26.232,0-48.804,10.156-67.715,30.468c-18.912,20.312-28.367,44.785-28.367,73.42
		c0,28.635,9.456,53.108,28.367,73.421c18.911,20.312,41.482,30.467,67.715,30.467c26.23,0,48.65-10.155,67.258-30.467
		c18.605-20.312,27.91-44.786,27.91-73.421c0-28.635-9.305-53.109-27.91-73.42C516.018,419.386,493.598,409.23,467.368,409.23z"/>
	<path fill="#FFFFFF" d="M733.652,325.321h-75.949c-10.373,0-19.217-3.996-26.537-11.987l-49.415-53.942
		c-10.372-11.321-23.182-16.981-38.432-16.981H390.502c-14.641,0-27.147,5.66-37.518,16.981l-49.414,53.942
		c-7.321,7.992-16.471,11.987-27.452,11.987h-75.95c-10.372,0-19.37,4.162-26.995,12.486c-7.625,8.325-11.438,18.147-11.438,29.467
		v332.641c0,11.322,3.813,21.145,11.438,29.469c7.625,8.325,16.624,12.487,26.995,12.487h533.482
		c10.371,0,19.368-4.162,26.995-12.487c7.625-8.324,11.438-18.146,11.438-29.469V367.275c0-11.32-3.813-21.143-11.438-29.467
		C753.02,329.483,744.023,325.321,733.652,325.321z M561.163,616.007c-25.929,28.635-57.192,42.953-93.795,42.953
		c-37.213,0-68.783-14.318-94.709-42.953c-25.927-28.636-38.89-62.932-38.89-102.889c0-40.623,12.963-75.085,38.89-103.388
		s57.497-42.455,94.709-42.455c37.212,0,68.631,14.152,94.251,42.455c25.622,28.303,38.435,62.766,38.435,103.388
		C600.053,553.075,587.088,587.371,561.163,616.007z M731.365,447.689c-9.457,10.323-21.2,15.483-35.23,15.483
		c-14.031,0-25.927-5.327-35.687-15.982c-9.762-10.654-14.642-23.308-14.642-37.959c0-15.316,4.88-28.302,14.642-38.958
		c9.76-10.655,21.655-15.982,35.687-15.982c13.421,0,25.012,5.327,34.772,15.982c9.76,10.656,14.641,23.642,14.641,38.958
		C745.547,424.547,740.819,437.367,731.365,447.689z"/>
	<!-- <path fill="#FFFFFF" d="M0,0v1000h928.571V0H0z M848.036,699.916c0,34.63-11.134,64.097-33.4,88.404
		c-22.267,24.309-49.262,36.461-80.983,36.461H200.169c-31.724,0-58.718-12.152-80.984-36.461
		c-22.267-24.308-33.4-53.774-33.4-88.404V367.275c0-34.628,11.133-64.097,33.4-88.404c22.266-24.306,49.26-36.46,80.984-36.46
		h60.394l38.433-41.955c10.981-11.987,25.012-21.81,42.094-29.468c17.08-7.658,33.551-11.488,49.413-11.488h152.816
		c15.86,0,32.484,3.83,49.871,11.488c17.386,7.658,31.569,17.481,42.55,29.468l37.518,41.955h60.395
		c31.722,0,58.717,12.154,80.983,36.46c22.267,24.307,33.4,53.776,33.4,88.404V699.916z"/> -->
</g>
</svg>
